<svg width="129" height="128" viewBox="0 0 129 128" fill="none" xmlns="http://www.w3.org/2000/svg">
<g id="ph:chat-dots-fill">
<path id="Vector" d="M108.5 24H20.4999C18.3782 24 16.3433 24.8429 14.843 26.3431C13.3428 27.8434 12.4999 29.8783 12.4999 32V112C12.4907 113.526 12.9222 115.021 13.7427 116.307C14.5632 117.594 15.7376 118.615 17.1249 119.25C18.182 119.742 19.3338 119.998 20.4999 120C22.3779 119.996 24.1936 119.326 25.6249 118.11C25.6488 118.094 25.6706 118.076 25.6899 118.055L41.7499 104H108.5C110.622 104 112.656 103.157 114.157 101.657C115.657 100.157 116.5 98.1217 116.5 96V32C116.5 29.8783 115.657 27.8434 114.157 26.3431C112.656 24.8429 110.622 24 108.5 24ZM42.4999 70C41.3132 70 40.1532 69.6481 39.1665 68.9888C38.1798 68.3295 37.4107 67.3925 36.9566 66.2961C36.5025 65.1997 36.3837 63.9933 36.6152 62.8295C36.8467 61.6656 37.4181 60.5965 38.2573 59.7574C39.0964 58.9182 40.1655 58.3468 41.3294 58.1153C42.4932 57.8838 43.6996 58.0026 44.796 58.4567C45.8924 58.9108 46.8294 59.6799 47.4887 60.6666C48.148 61.6533 48.4999 62.8133 48.4999 64C48.4999 65.5913 47.8678 67.1174 46.7425 68.2426C45.6173 69.3679 44.0912 70 42.4999 70ZM64.4999 70C63.3132 70 62.1532 69.6481 61.1665 68.9888C60.1798 68.3295 59.4107 67.3925 58.9566 66.2961C58.5025 65.1997 58.3837 63.9933 58.6152 62.8295C58.8467 61.6656 59.4181 60.5965 60.2573 59.7574C61.0964 58.9182 62.1655 58.3468 63.3294 58.1153C64.4932 57.8838 65.6996 58.0026 66.796 58.4567C67.8923 58.9108 68.8294 59.6799 69.4887 60.6666C70.148 61.6533 70.4999 62.8133 70.4999 64C70.4999 65.5913 69.8678 67.1174 68.7425 68.2426C67.6173 69.3679 66.0912 70 64.4999 70ZM86.4999 70C85.3132 70 84.1532 69.6481 83.1665 68.9888C82.1798 68.3295 81.4108 67.3925 80.9566 66.2961C80.5025 65.1997 80.3837 63.9933 80.6152 62.8295C80.8467 61.6656 81.4181 60.5965 82.2573 59.7574C83.0964 58.9182 84.1655 58.3468 85.3294 58.1153C86.4932 57.8838 87.6996 58.0026 88.796 58.4567C89.8923 58.9108 90.8294 59.6799 91.4887 60.6666C92.148 61.6533 92.4999 62.8133 92.4999 64C92.4999 65.5913 91.8678 67.1174 90.7425 68.2426C89.6173 69.3679 88.0912 70 86.4999 70Z" fill="black"/>
</g>
</svg>
