<svg width="128" height="128" viewBox="0 0 128 128" fill="none" xmlns="http://www.w3.org/2000/svg">
<g id="mdi:location">
<path id="Vector" d="M63.9998 61.3333C60.4636 61.3333 57.0722 59.9286 54.5717 57.4281C52.0713 54.9276 50.6665 51.5362 50.6665 48C50.6665 44.4638 52.0713 41.0724 54.5717 38.5719C57.0722 36.0714 60.4636 34.6667 63.9998 34.6667C67.5361 34.6667 70.9274 36.0714 73.4279 38.5719C75.9284 41.0724 77.3332 44.4638 77.3332 48C77.3332 49.7509 76.9883 51.4848 76.3182 53.1024C75.6482 54.7201 74.666 56.19 73.4279 57.4281C72.1898 58.6662 70.72 59.6483 69.1023 60.3184C67.4846 60.9884 65.7508 61.3333 63.9998 61.3333ZM63.9998 10.6667C54.0984 10.6667 44.6025 14.6 37.6012 21.6013C30.5998 28.6027 26.6665 38.0986 26.6665 48C26.6665 76 63.9998 117.333 63.9998 117.333C63.9998 117.333 101.333 76 101.333 48C101.333 38.0986 97.3998 28.6027 90.3985 21.6013C83.3971 14.6 73.9013 10.6667 63.9998 10.6667Z" fill="black"/>
</g>
</svg>
