<svg width="128" height="128" viewBox="0 0 128 128" fill="none" xmlns="http://www.w3.org/2000/svg">
<g id="material-symbols:mail">
<path id="Vector" d="M21.3334 106.667C18.4001 106.667 15.8899 105.623 13.8027 103.536C11.7156 101.449 10.6703 98.9369 10.6667 96V32C10.6667 29.0667 11.7121 26.5565 13.8027 24.4693C15.8934 22.3822 18.4036 21.3369 21.3334 21.3333H106.667C109.6 21.3333 112.112 22.3787 114.203 24.4693C116.293 26.56 117.337 29.0702 117.333 32V96C117.333 98.9333 116.29 101.445 114.203 103.536C112.116 105.627 109.604 106.67 106.667 106.667H21.3334ZM64.0001 69.3333L106.667 42.6667V32L64.0001 58.6667L21.3334 32V42.6667L64.0001 69.3333Z" fill="black"/>
</g>
</svg>
