<svg width="128" height="128" viewBox="0 0 128 128" fill="none" xmlns="http://www.w3.org/2000/svg">
<g id="bi:phone" clip-path="url(#clip0_624_618)">
<g id="Group">
<path id="Vector" d="M88 8C90.1217 8 92.1566 8.84285 93.6569 10.3431C95.1571 11.8434 96 13.8783 96 16V112C96 114.122 95.1571 116.157 93.6569 117.657C92.1566 119.157 90.1217 120 88 120H40C37.8783 120 35.8434 119.157 34.3431 117.657C32.8429 116.157 32 114.122 32 112V16C32 13.8783 32.8429 11.8434 34.3431 10.3431C35.8434 8.84285 37.8783 8 40 8H88ZM40 0C35.7565 0 31.6869 1.68571 28.6863 4.68629C25.6857 7.68687 24 11.7565 24 16V112C24 116.243 25.6857 120.313 28.6863 123.314C31.6869 126.314 35.7565 128 40 128H88C92.2435 128 96.3131 126.314 99.3137 123.314C102.314 120.313 104 116.243 104 112V16C104 11.7565 102.314 7.68687 99.3137 4.68629C96.3131 1.68571 92.2435 0 88 0L40 0Z" fill="black"/>
<path id="Vector_2" d="M64 112C66.1217 112 68.1566 111.157 69.6569 109.657C71.1571 108.157 72 106.122 72 104C72 101.878 71.1571 99.8434 69.6569 98.3431C68.1566 96.8429 66.1217 96 64 96C61.8783 96 59.8434 96.8429 58.3431 98.3431C56.8429 99.8434 56 101.878 56 104C56 106.122 56.8429 108.157 58.3431 109.657C59.8434 111.157 61.8783 112 64 112Z" fill="black"/>
</g>
</g>
<defs>
<clipPath id="clip0_624_618">
<rect width="128" height="128" fill="white"/>
</clipPath>
</defs>
</svg>
